<svg xmlns="http://www.w3.org/2000/svg" viewBox="0 0 612 612" focusable="false" role="img">
    <path
       id="path3757"
       d="M 57.902185,81.561871 V 191.86447 h 14.923728 v -46.61818 h 16.253561 c 5.91039,0 10.56482,1.20671 13.963286,3.62011 3.44773,2.41341 6.99397,7.31412 10.6387,14.70209 l 14.11105,28.29598 h 16.03193 L 128.67907,161.7215 c -3.05369,-6.20591 -6.1074,-11.082 -9.1611,-14.62821 -3.00446,-3.54623 -6.10741,-5.86114 -9.30886,-6.94471 6.15666,-1.77312 10.83573,-4.94995 14.03717,-9.5305 3.25072,-4.58055 4.87607,-10.34317 4.87607,-17.28788 0,-10.6387 -3.10295,-18.593091 -9.30886,-23.863186 -6.20591,-5.270096 -15.61327,-7.905143 -28.222096,-7.905143 z m 14.923728,12.264053 h 18.765481 c 7.19097,0 12.608826,1.649983 16.253556,4.94995 3.694,3.250706 5.54099,8.102156 5.54099,14.554326 0,6.45217 -1.84699,11.35287 -5.54099,14.70209 -3.64473,3.29997 -9.062586,4.94995 -16.253556,4.94995 H 72.825913 Z"
       style="font-style:normal;font-weight:normal;font-size:50.79999924px;line-height:1.25;font-family:sans-serif;letter-spacing:0px;word-spacing:0px;fill:#000000;fill-opacity:1;stroke:none;stroke-width:0.78805161" />
</svg>
